<?xml version="1.0" encoding="UTF-8"?>
<!DOCTYPE svg PUBLIC "-//W3C//DTD SVG 1.1//EN" "http://www.w3.org/Graphics/SVG/1.1/DTD/svg11.dtd">
<!-- Creator: CorelDRAW X7 -->
<svg xmlns="http://www.w3.org/2000/svg" xml:space="preserve" width="63.0761mm" height="51.3793mm" version="1.1" style="shape-rendering:geometricPrecision; text-rendering:geometricPrecision; image-rendering:optimizeQuality; fill-rule:evenodd; clip-rule:evenodd"
viewBox="0 0 513 418"
 xmlns:xlink="http://www.w3.org/1999/xlink">
 <defs>
  <style type="text/css">
   <![CDATA[
    .fil2 {fill:url(#id0)}
    .fil0 {fill:url(#id1)}
    .fil1 {fill:url(#id2)}
   ]]>
  </style>
  <linearGradient id="id0" gradientUnits="userSpaceOnUse" x1="304.053" y1="354.202" x2="329.359" y2="416.934">
   <stop offset="0" style="stop-opacity:1; stop-color:#559A34"/>
   <stop offset="1" style="stop-opacity:1; stop-color:#3B6229"/>
  </linearGradient>
  <linearGradient id="id1" gradientUnits="userSpaceOnUse" xlink:href="#id0" x1="233.138" y1="149.621" x2="446.811" y2="463.589">
  </linearGradient>
  <linearGradient id="id2" gradientUnits="userSpaceOnUse" xlink:href="#id0" x1="-16.2837" y1="52.0981" x2="336.072" y2="330.54">
  </linearGradient>
 </defs>
 <g id="Layer_x0020_1">
  <metadata id="CorelCorpID_0Corel-Layer"/>
  <g id="_2422818893808">
   <path class="fil0" d="M166 417l1 0c1,10 122,-56 127,-54 27,10 39,18 69,24 25,6 62,10 86,8 -8,-15 -51,-37 -72,-44 -6,-3 -29,-8 -31,-9 0,0 47,-20 53,-24 17,-9 33,-20 47,-32 23,-19 61,-62 67,-91 -66,4 -142,48 -190,93 -79,75 -55,68 -157,129z"/>
   <path class="fil1" d="M0 155c46,121 135,159 183,182 -60,3 -94,9 -143,37 18,9 90,10 111,7 81,-10 147,-68 164,-145 16,-72 -10,-178 -56,-236 -3,2 -12,17 -14,22 -3,6 -10,18 -12,24 -41,96 -32,149 -9,243 -46,-53 -73,-106 -224,-134z"/>
   <path class="fil2" d="M270 380c10,11 79,28 93,22 -1,-1 -17,-4 -20,-5 -21,-8 -34,-17 -51,-29l-22 12z"/>
  </g>
 </g>
</svg>
