<?xml version="1.0" encoding="UTF-8"?>
<!DOCTYPE svg PUBLIC "-//W3C//DTD SVG 1.1//EN" "http://www.w3.org/Graphics/SVG/1.1/DTD/svg11.dtd">
<!-- Creator: CorelDRAW X7 -->
<svg xmlns="http://www.w3.org/2000/svg" xml:space="preserve" width="63.0761mm" height="51.3793mm" version="1.1" style="shape-rendering:geometricPrecision; text-rendering:geometricPrecision; image-rendering:optimizeQuality; fill-rule:evenodd; clip-rule:evenodd"
viewBox="0 0 656 534"
 xmlns:xlink="http://www.w3.org/1999/xlink">
 <defs>
  <style type="text/css">
   <![CDATA[
    .fil0 {fill:#FEFEFE}
   ]]>
  </style>
 </defs>
 <g id="Layer_x0020_1">
  <metadata id="CorelCorpID_0Corel-Layer"/>
  <path class="fil0" d="M213 532l0 1c2,13 157,-72 163,-70 34,14 50,23 88,32 31,7 78,12 110,9 -11,-19 -66,-47 -92,-56 -8,-3 -38,-10 -40,-11 1,-1 59,-26 68,-31 21,-11 42,-25 60,-41 29,-24 77,-79 86,-116 -86,5 -183,61 -244,119 -100,96 -70,86 -199,164z"/>
  <path class="fil0" d="M0 198c58,155 172,203 234,232 -77,5 -120,12 -183,48 23,11 115,12 142,9 103,-13 188,-87 210,-186 20,-91 -14,-228 -72,-301 -3,2 -16,22 -18,28 -4,7 -12,23 -16,31 -52,122 -40,190 -11,310 -59,-67 -93,-135 -286,-171z"/>
  <path class="fil0" d="M345 485c13,14 101,36 119,29 -2,-2 -21,-6 -26,-7 -26,-10 -43,-22 -65,-37l-28 15z"/>
 </g>
</svg>
